<svg xmlns="http://www.w3.org/2000/svg" xmlns:xlink="http://www.w3.org/1999/xlink" viewBox="0 0 395.5 395.5">
    <defs>
        <style>.cls-1{fill:url(#Безымянный_градиент_122);}.cls-2{fill:#fff;}</style>
        <linearGradient id="Безымянный_градиент_122" x1="197.75" y1="394.15" x2="197.75" y2="-0.59"
                        gradientUnits="userSpaceOnUse">
            <stop offset="0" stop-color="#ff7735"/>
            <stop offset="1" stop-color="#ffba35"/>
        </linearGradient>
    </defs>
    <g id="Слой_2" data-name="Слой 2">
        <g id="Слой_12" data-name="Слой 12">
            <circle class="cls-1" cx="197.75" cy="197.75" r="197.75"/>
            <path class="cls-2"
                  d="M331.73,240.8c-10.08-6-33.21-17.88-69.23-25.08a.12.12,0,0,1-.09-.08L216.61,74.7a6.64,6.64,0,0,0-6.32-4.58H185a6.64,6.64,0,0,0-6.31,4.58L132.78,216.07a.11.11,0,0,1-.09.08c-35,7.14-57.66,18.43-67.93,24.42a12.46,12.46,0,0,0-6.35,10.91,12,12,0,0,0,17.93,10.13,209.78,209.78,0,0,1,47.71-19.28.12.12,0,0,1,.15.15l-16.77,51.59a6.64,6.64,0,0,0,6.32,8.69h20.88a6.62,6.62,0,0,0,6.33-4.65l19.65-62.88a.11.11,0,0,1,.1-.08A294,294,0,0,1,198,233a305.08,305.08,0,0,1,36.67,2.3.12.12,0,0,1,.1.09l19.61,62.75a6.64,6.64,0,0,0,6.34,4.65h20.88a6.63,6.63,0,0,0,6.31-8.69L271.17,242.6a.12.12,0,0,1,.15-.15A214.56,214.56,0,0,1,319.7,261.8a12,12,0,0,0,17.88-10.47v-.22A12,12,0,0,0,331.73,240.8ZM198,209.71c-10.47,0-20.35.51-29.64,1.32a.13.13,0,0,1-.13-.16l23.11-74a6.64,6.64,0,0,1,12.67,0l23,73.72a.12.12,0,0,1-.12.16C217.83,210.07,208.19,209.67,198,209.71Z"/>
        </g>
    </g>
</svg>