<svg xmlns="http://www.w3.org/2000/svg" xmlns:xlink="http://www.w3.org/1999/xlink" viewBox="0 0 822 179.28">
    <defs>
        <style>
            .cls-1{fill:url(#Безымянный_градиент_122);}.cls-2{fill:#fff;}.cls-3{font-size:150px;font-family:CirceRounded-Regular4,
            Circe Rounded ;letter-spacing:0.05em;}.cls-4{letter-spacing:-0.01em;}
        </style>
        <linearGradient id="Безымянный_градиент_122" x1="85.47" y1="170.35" x2="85.47" y2="-0.26"
                        gradientUnits="userSpaceOnUse">
            <stop offset="0" stop-color="#ff7735"/>
            <stop offset="1" stop-color="#ffba35"/>
        </linearGradient>
    </defs>
    <g id="Слой_2" data-name="Слой 2">
        <g id="Слой_11" data-name="Слой 11">
            <circle class="cls-1" cx="85.47" cy="85.47" r="85.47"/>
            <path class="cls-2"
                  d="M143.55,103.44c-4.36-2.61-14.36-7.73-29.92-10.84a0,0,0,0,1,0,0l-19.8-60.9a2.86,2.86,0,0,0-2.73-2H80.15a2.87,2.87,0,0,0-2.73,2L57.56,92.75a0,0,0,0,1,0,0c-15.11,3.08-24.92,8-29.36,10.55a5.38,5.38,0,0,0-2.74,4.72,5.19,5.19,0,0,0,7.75,4.38,90.36,90.36,0,0,1,20.62-8.34.05.05,0,0,1,.06.07l-7.24,22.3a2.86,2.86,0,0,0,2.73,3.75h9a2.87,2.87,0,0,0,2.74-2L69.59,101s0,0,0,0a128.17,128.17,0,0,1,16.12-.94,131.57,131.57,0,0,1,15.85,1s0,0,0,0l8.47,27.12a2.87,2.87,0,0,0,2.74,2h9a2.86,2.86,0,0,0,2.72-3.75l-7.22-22.25a.05.05,0,0,1,.06-.07,93,93,0,0,1,20.91,8.37,5.18,5.18,0,0,0,7.72-4.53v-.09A5.19,5.19,0,0,0,143.55,103.44ZM85.75,90c-4.53,0-8.8.22-12.82.57,0,0-.06,0-.05-.06l10-32a2.86,2.86,0,0,1,5.47,0l10,31.86s0,.07,0,.06C94.32,90.16,90.15,90,85.75,90Z"/>
            <text class="cls-3" transform="translate(197.7 131.28)">ANIH
                <tspan class="cls-4" x="420.59" y="0">Y</tspan>
                <tspan x="510.89" y="0">A</tspan>
            </text>
        </g>
    </g>
</svg>