<svg width="38" height="40" viewBox="0 0 38 40" fill="none" xmlns="http://www.w3.org/2000/svg">
<path d="M18.2139 0.457361C18.2139 0.457361 17.1192 0.418719 15.945 0.893559C14.9754 1.28565 13.8952 2.22818 13.4596 3.66211C12.7492 3.89775 10.6318 4.50776 9.05858 2.97852C8.89392 2.81829 8.68828 2.70654 8.46425 2.65553C8.24023 2.60453 8.00648 2.61625 7.78868 2.68941C7.57088 2.76257 7.37746 2.89434 7.22965 3.07025C7.08185 3.24615 6.98537 3.45938 6.95083 3.68653C6.95083 3.68653 6.7946 4.70001 6.83365 5.9017C6.85908 6.68448 7.03907 7.56837 7.40819 8.41309C7.21243 8.56369 7.26199 8.59165 6.84504 8.80209C5.93194 9.26295 4.51188 9.71665 2.44237 9.56869C2.24214 9.55435 2.04139 9.58844 1.85712 9.66808C1.67285 9.74771 1.51046 9.87056 1.3837 10.0262C1.25694 10.1819 1.16953 10.3658 1.12886 10.5624C1.08819 10.7589 1.09546 10.9624 1.15005 11.1556C1.15005 11.1556 1.48187 12.3653 2.20311 13.5856C2.56373 14.1958 3.02594 14.8315 3.67609 15.3451C3.94239 15.5554 4.27336 15.7172 4.61359 15.8594C4.53613 16.3859 4.55059 16.7186 4.20669 17.6172C3.65833 19.0501 2.79256 20.3172 1.28026 20.6136C1.00813 20.6668 0.761384 20.8089 0.578855 21.0176C0.396326 21.2263 0.288368 21.4898 0.271966 21.7666C0.255563 22.0434 0.331647 22.3178 0.488248 22.5466C0.644849 22.7754 0.873078 22.9457 1.13703 23.0306C1.13703 23.0306 2.33855 23.419 3.82258 23.5905C4.05358 23.6172 4.2955 23.6285 4.54035 23.6328C4.13438 24.7765 3.97863 25.7927 4.01952 26.7074L6.51952 25.0407C6.51952 25.0407 5.23035 26.8499 5.68618 30.0407C7.11202 28.3407 8.18618 28.374 8.18618 28.374L9.01952 32.5407L10.4307 30.5648C10.5287 30.7625 10.6323 30.9572 10.7432 31.1491C12.155 33.5949 14.8255 37.0891 19.345 39.0983C19.5049 39.1694 19.6779 39.2061 19.8529 39.2061C20.0278 39.2061 20.2008 39.1694 20.3607 39.0983C24.5844 37.221 27.1786 34.0585 28.6549 31.6553L29.4362 32.749L30.2695 28.5824C30.2695 28.5824 31.3437 28.549 32.7695 30.249C33.2254 27.059 31.9362 25.249 31.9362 25.249L34.4362 26.1149C34.5018 25.2916 34.2431 24.3147 33.7379 23.2227C34.5272 22.4837 35.3446 21.6924 36.0345 20.9635C36.7273 20.2316 37.2743 19.6448 37.6328 18.9421C37.7226 18.7664 37.7695 18.5719 37.7697 18.3746C37.77 18.1773 37.7235 17.9828 37.6341 17.8069C37.5447 17.631 37.415 17.4788 37.2555 17.3626C37.096 17.2465 36.9113 17.1697 36.7165 17.1387C36.7165 17.1387 35.8906 16.9976 35.1133 16.6292C34.7858 16.4741 34.5266 16.2766 34.3174 16.084C34.641 15.983 34.6741 16.0115 35.0482 15.8545C35.6009 15.6225 36.1818 15.3322 36.7034 14.8942C37.2251 14.4562 37.7514 13.7789 37.7695 12.8825C37.7758 12.5773 37.6701 12.2804 37.4725 12.0477C37.275 11.8151 36.9991 11.6628 36.6969 11.6195C35.6202 11.466 35.0997 11.2407 34.8219 11.0531C34.5442 10.8654 34.4222 10.6837 34.1611 10.2767C33.7966 9.70836 32.9228 8.90782 31.6448 8.17872C32.3136 7.34885 32.9175 6.17737 32.7646 4.57194C32.745 4.36695 32.6751 4.16999 32.561 3.99854C32.4469 3.8271 32.2922 3.6865 32.1107 3.58922C31.9292 3.49195 31.7265 3.44102 31.5206 3.44095C31.3146 3.44089 31.1119 3.4917 30.9303 3.58887C30.9303 3.58887 30.3344 3.90574 29.4834 4.15853C28.6323 4.41133 27.5937 4.5343 26.8955 4.31478C26.4288 4.16812 25.6809 3.5462 24.5306 3.08106C23.5631 2.68985 22.2185 2.75692 20.8131 3.35938C20.6614 3.2972 20.5135 3.25941 20.206 3.02572C19.769 2.69348 19.4463 2.31776 19.4362 1.6862C19.4308 1.36311 19.3004 1.05466 19.0726 0.82556C18.8447 0.596459 18.5369 0.4645 18.2139 0.457361ZM17.3431 3.11849C17.6878 3.93098 18.1693 4.61742 18.694 5.01628C19.4982 5.62759 20.3053 5.88054 20.3053 5.88054C20.4766 5.93563 20.6578 5.95309 20.8364 5.93174C21.0151 5.9104 21.187 5.85074 21.3405 5.75684C22.5259 5.02927 22.9634 5.14349 23.5947 5.39877C24.226 5.65404 24.9544 6.32505 26.1452 6.69922C27.4778 7.11821 28.7517 6.91237 29.8024 6.63412C29.4194 7.14178 28.9577 7.3584 28.9577 7.3584C28.7285 7.46796 28.5381 7.64473 28.4119 7.86518C28.2857 8.08564 28.2296 8.33931 28.2512 8.59241C28.2728 8.84552 28.3709 9.08605 28.5326 9.28198C28.6943 9.47791 28.9118 9.61993 29.1562 9.68913C31.4453 10.3386 31.5159 10.782 32.0583 11.6276C32.3294 12.0504 32.7227 12.6523 33.4222 13.125C33.6353 13.269 34.054 13.3045 34.3125 13.4196C34.2224 13.4629 34.1759 13.5101 34.0814 13.5498C33.2526 13.8977 32.3821 14.0837 32.3821 14.0837C32.1004 14.1417 31.8473 14.2952 31.6656 14.5182C31.4838 14.7411 31.3845 15.02 31.3844 15.3076C31.3844 16.2505 31.7923 17.0817 32.3154 17.6595C32.8385 18.2373 33.4597 18.6123 34.0423 18.8884C34.2333 18.9789 34.2329 18.9348 34.4167 19.0055C34.3202 19.1137 34.3253 19.1333 34.2197 19.2448C33.5844 19.916 32.7894 20.6854 32.0192 21.4063C31.1628 22.2079 30.4125 22.8806 29.848 23.3805C29.8821 20.6697 29.6632 18.6104 29.3922 17.1338C29.0239 15.1267 28.5264 14.1146 28.5264 14.1146C28.4456 13.9552 28.3158 13.826 28.1561 13.746C27.9963 13.6661 27.8151 13.6395 27.6391 13.6703C27.4632 13.7012 27.3018 13.7877 27.1787 13.9172C27.0557 14.0467 26.9775 14.2123 26.9557 14.3897C26.8176 15.5194 25.9818 16.4553 25.2923 17.1143C24.2577 14.3511 22.6068 12.5212 22.6068 12.5212C22.53 12.4401 22.4377 12.3752 22.3353 12.3305C22.233 12.2857 22.1227 12.262 22.0111 12.2607C21.8784 12.2593 21.7473 12.2896 21.6287 12.349C21.5101 12.4085 21.4073 12.4954 21.3291 12.6025L19.3304 15.3418C18.4249 13.6392 16.7604 12.6676 16.7604 12.6676C16.6194 12.5794 16.4553 12.5354 16.2891 12.5412C16.1229 12.547 15.9622 12.6023 15.8278 12.7002C14.4453 13.7087 14.0987 15.3545 14.0472 16.6374C14.0298 17.071 14.084 17.0784 14.1139 17.4284L11.8532 16.3688C11.6665 16.2814 11.454 16.2663 11.2568 16.3264C11.0596 16.3866 10.8917 16.5176 10.7855 16.6943C9.80425 18.3285 9.73317 20.8719 9.75845 23.1673C9.47557 22.6868 9.2718 22.1672 9.12694 21.4323C9.08544 21.2219 8.99055 21.0258 8.85137 20.8627C8.71218 20.6996 8.5334 20.5751 8.33218 20.501C8.13097 20.427 7.9141 20.4059 7.7024 20.4399C7.49071 20.4739 7.29131 20.5617 7.12336 20.695C6.74807 20.9933 5.89294 21.1027 4.98957 21.1051C5.68726 20.2953 6.21378 19.3692 6.5423 18.5107C7.24394 16.6774 7.35122 14.9837 7.35122 14.9837C7.36341 14.8026 7.33601 14.6211 7.27095 14.4516C7.20589 14.2822 7.10471 14.129 6.97445 14.0026C6.8442 13.8762 6.68798 13.7797 6.51667 13.7198C6.34535 13.6599 6.16304 13.638 5.98241 13.6556C5.71123 13.6818 5.51566 13.6129 5.22557 13.3838C4.93549 13.1546 4.61717 12.754 4.35643 12.3128C4.25149 12.1353 4.28025 12.1184 4.1953 11.9434C5.73188 11.8035 7.06883 11.489 7.97134 11.0335C9.24345 10.3915 9.96027 9.59799 9.96027 9.59799C10.1777 9.34988 10.2883 9.02589 10.2678 8.69662C10.2474 8.36735 10.0977 8.0595 9.85122 7.84017C9.68974 7.69662 9.42837 6.82746 9.3662 5.95541C12.1276 6.99568 14.9782 5.83985 14.9782 5.83985C15.1907 5.74919 15.3739 5.60142 15.5075 5.41295C15.6411 5.22447 15.7198 5.00266 15.735 4.77214C15.8043 3.71707 16.2561 3.46393 16.8808 3.21127C17.1066 3.11996 17.1419 3.15601 17.3431 3.11849ZM22.0176 14.4857C22.6355 15.2733 23.5804 16.6238 24.1351 18.7809C24.1686 18.9111 24.233 19.0313 24.323 19.1311C24.413 19.231 24.5258 19.3076 24.6518 19.3545C24.7777 19.4013 24.9132 19.417 25.0466 19.4002C25.1799 19.3833 25.3072 19.3345 25.4176 19.2578C25.4176 19.2578 26.6796 18.3867 27.6279 16.9824C27.6877 17.2406 27.6933 17.1082 27.7532 17.4349C28.057 19.0903 28.3026 21.6062 28.1243 25.1204C27.9549 25.3429 27.865 25.6156 27.8688 25.8952C27.8688 27.3031 27.5015 28.68 26.7995 29.8975C25.6153 31.9478 23.3933 34.7707 19.8529 36.5234C16.3131 34.7707 14.0909 31.9489 12.9079 29.8991C12.9079 29.8986 12.9079 29.898 12.9079 29.8975C12.2049 28.6803 11.8385 27.304 11.8385 25.8952C11.8406 25.731 11.8104 25.568 11.7495 25.4156C11.6886 25.2631 11.5983 25.1241 11.4837 25.0065C11.4559 24.474 11.4329 23.8984 11.4251 23.2861C11.4013 21.3992 11.6369 19.4554 12.0241 18.2894L14.7015 19.5443C14.843 19.6105 15.0004 19.6357 15.1555 19.6168C15.3106 19.5979 15.4573 19.5358 15.5789 19.4375C15.7004 19.3392 15.7918 19.2088 15.8427 19.061C15.8937 18.9133 15.902 18.7542 15.8668 18.6019C15.8668 18.6019 15.6708 17.7368 15.7122 16.7041C15.7443 15.9055 16.0012 15.1578 16.4365 14.5687C17.0621 15.0805 18.1088 16.0281 18.2318 17.2103C18.2494 17.3778 18.3174 17.536 18.4267 17.6641C18.5361 17.7922 18.6817 17.8841 18.8443 17.9278C19.007 17.9715 19.1791 17.9649 19.3379 17.9089C19.4967 17.8529 19.6348 17.75 19.734 17.6139L22.0176 14.4857ZM26.557 20.8691C26.4534 20.8658 26.3502 20.8818 26.2526 20.9163L21.2526 22.6058C21.1472 22.6395 21.0496 22.6938 20.9654 22.7655C20.8812 22.8373 20.8121 22.9252 20.7622 23.0239C20.7124 23.1227 20.6826 23.2303 20.6748 23.3407C20.667 23.4511 20.6812 23.5619 20.7166 23.6667C20.7521 23.7715 20.808 23.8682 20.8812 23.9511C20.9544 24.0341 21.0434 24.1017 21.143 24.1499C21.2426 24.1981 21.3507 24.226 21.4612 24.2319C21.5717 24.2379 21.6823 24.2218 21.7864 24.1846L22.4603 23.9567C22.3927 24.1979 22.3529 24.4627 22.3529 24.7428C22.3529 25.8262 22.9145 26.7074 23.6045 26.7074C24.2945 26.7074 24.8545 25.8262 24.8545 24.7428C24.8545 24.1633 24.6909 23.6487 24.4362 23.2894L26.7864 22.4967C26.9743 22.4372 27.135 22.3131 27.24 22.1463C27.345 21.9796 27.3875 21.781 27.36 21.5859C27.3324 21.3908 27.2367 21.2117 27.0897 21.0805C26.9427 20.9493 26.7539 20.8744 26.557 20.8691ZM13.1504 20.9896C12.9564 20.9958 12.7706 21.0694 12.6251 21.1979C12.4797 21.3264 12.3836 21.5016 12.3535 21.6934C12.3234 21.8851 12.3612 22.0814 12.4603 22.2482C12.5594 22.4151 12.7137 22.5421 12.8965 22.6074L14.5029 23.2048C14.2109 23.5641 14.0195 24.1156 14.0195 24.7428C14.0195 25.8262 14.5795 26.7074 15.2695 26.7074C15.9595 26.7074 16.5195 25.8262 16.5195 24.7428C16.5195 24.443 16.4741 24.1621 16.3974 23.9079L17.0631 24.1553C17.1663 24.196 17.2765 24.2157 17.3874 24.2132C17.4983 24.2108 17.6075 24.1862 17.7088 24.141C17.8101 24.0958 17.9013 24.0309 17.9771 23.9499C18.053 23.869 18.1119 23.7738 18.1504 23.6698C18.189 23.5658 18.2064 23.4552 18.2017 23.3444C18.1969 23.2336 18.1701 23.1249 18.1228 23.0246C18.0755 22.9243 18.0087 22.8344 17.9262 22.7603C17.8438 22.6861 17.7473 22.6292 17.6426 22.5928L13.4759 21.0449C13.3722 21.005 13.2615 20.9861 13.1504 20.9896ZM18.5491 28.374C18.4308 28.374 18.3247 28.4455 18.2822 28.5563C18.2389 28.6663 18.2696 28.7921 18.3571 28.8721C18.7013 29.1846 19.1373 29.5806 19.4573 29.8714C19.7032 30.0948 20.0798 30.0948 20.3265 29.8714C20.6457 29.5806 21.0826 29.1846 21.4267 28.8721C21.5142 28.7921 21.5441 28.6663 21.5016 28.5563C21.4591 28.4455 21.353 28.374 21.2347 28.374H18.5491ZM18.1862 31.7057C18.0758 31.7042 17.9661 31.7246 17.8636 31.7658C17.7612 31.8069 17.6679 31.8681 17.5893 31.9456C17.5106 32.0231 17.4482 32.1155 17.4056 32.2174C17.3629 32.3193 17.341 32.4286 17.341 32.5391C17.341 32.6495 17.3629 32.7588 17.4056 32.8607C17.4482 32.9626 17.5106 33.055 17.5893 33.1325C17.6679 33.2101 17.7612 33.2712 17.8636 33.3124C17.9661 33.3536 18.0758 33.374 18.1862 33.3724H21.9362C22.0466 33.374 22.1562 33.3536 22.2587 33.3124C22.3612 33.2712 22.4545 33.2101 22.5331 33.1325C22.6117 33.055 22.6742 32.9626 22.7168 32.8607C22.7594 32.7588 22.7814 32.6495 22.7814 32.5391C22.7814 32.4286 22.7594 32.3193 22.7168 32.2174C22.6742 32.1155 22.6117 32.0231 22.5331 31.9456C22.4545 31.8681 22.3612 31.8069 22.2587 31.7658C22.1562 31.7246 22.0466 31.7042 21.9362 31.7057H18.1862Z" fill="black"/>
</svg>
