<svg width="20" height="20" viewBox="0 0 20 20" fill="none" xmlns="http://www.w3.org/2000/svg">
<path d="M4 12.5H5.33333C6.07 12.5 6.66667 11.94 6.66667 11.25V9.99998C6.66667 9.30936 6.07 8.74999 5.33333 8.74999H4C3.26333 8.74999 2.66667 9.30936 2.66667 9.99998V11.25C2.66667 11.94 3.26333 12.5 4 12.5ZM4 9.99998H5.33333V11.25H4V9.99998ZM14.6667 17.4999H16C16.7367 17.4999 17.3334 16.9406 17.3334 16.25V15C17.3334 14.3094 16.7367 13.75 16 13.75H14.6667C13.9307 13.75 13.3333 14.3094 13.3333 15V16.25C13.3333 16.9406 13.93 17.4999 14.6667 17.4999ZM14.6667 15H16V16.25H14.6667V15ZM14.6667 12.5H16C16.7367 12.5 17.3334 11.94 17.3334 11.25V9.99998C17.3334 9.30936 16.7367 8.74999 16 8.74999H14.6667C13.9307 8.74999 13.3333 9.30936 13.3333 9.99998V11.25C13.3333 11.94 13.93 12.5 14.6667 12.5ZM14.6667 9.99998H16V11.25H14.6667V9.99998ZM17.3334 1.25H14.6667V0.624999C14.6667 0.279993 14.368 0 14 0C13.6321 0 13.3334 0.279993 13.3334 0.624999V1.25H6.6667V0.624999C6.66667 0.279993 6.36801 0 6 0C5.63199 0 5.33333 0.279993 5.33333 0.624999V1.25H2.66667C1.19402 1.25 0 2.36939 0 3.74999V17.4999C0 18.8806 1.19402 20 2.66667 20H17.3333C18.806 20 20 18.8806 20 17.4999V3.74999C20 2.36936 18.806 1.25 17.3334 1.25ZM18.6667 17.4999C18.6667 18.1906 18.07 18.75 17.3334 18.75H2.66667C1.93 18.75 1.33333 18.19 1.33333 17.4999V6.24999H18.6667V17.4999H18.6667ZM18.6667 4.99999H1.33333V3.74999C1.33333 3.05937 1.93 2.5 2.66667 2.5H5.33333V3.12499C5.33333 3.47 5.63199 3.74999 6 3.74999C6.36801 3.74999 6.66667 3.47 6.66667 3.12499V2.5H13.3333V3.12499C13.3333 3.47 13.632 3.74999 14 3.74999C14.368 3.74999 14.6667 3.47 14.6667 3.12499V2.5H17.3334C18.07 2.5 18.6667 3.05937 18.6667 3.74999V4.99999ZM9.33333 17.4999H10.6667C11.4033 17.4999 12 16.9406 12 16.25V15C12 14.3094 11.4033 13.75 10.6667 13.75H9.33333C8.59735 13.75 8 14.3094 8 15V16.25C8 16.9406 8.59667 17.4999 9.33333 17.4999ZM9.33333 15H10.6667V16.25H9.33333V15ZM9.33333 12.5H10.6667C11.4033 12.5 12 11.94 12 11.25V9.99998C12 9.30936 11.4033 8.74999 10.6667 8.74999H9.33333C8.59735 8.74999 8 9.30936 8 9.99998V11.25C8 11.94 8.59667 12.5 9.33333 12.5ZM9.33333 9.99998H10.6667V11.25H9.33333V9.99998ZM4 17.4999H5.33333C6.07 17.4999 6.66667 16.9406 6.66667 16.25V15C6.66667 14.3094 6.07 13.75 5.33333 13.75H4C3.26333 13.75 2.66667 14.3094 2.66667 15V16.25C2.66667 16.9406 3.26333 17.4999 4 17.4999ZM4 15H5.33333V16.25H4V15Z" fill="black"/>
</svg>
