<svg width="28" height="28" viewBox="0 0 28 28" fill="none" xmlns="http://www.w3.org/2000/svg">
<path d="M27.7602 17.1168C27.5788 17.029 27.3603 17.0806 27.2371 17.2409C26.6915 17.9504 25.982 18.6046 25.1277 19.1851C20.1768 22.5434 13.3898 21.2837 10.0011 16.3744C6.67063 11.5504 7.87455 4.87996 12.6844 1.50501C12.8463 1.3914 12.9087 1.18165 12.8355 0.998116C12.7618 0.814196 12.5691 0.706852 12.3765 0.734721C10.396 1.03101 8.45299 1.79589 6.75679 2.94611C3.69769 5.02106 1.63983 8.1538 0.962746 11.7676C0.288599 15.3648 1.0651 19.0091 3.14917 22.0286C5.82837 25.9088 10.1746 27.9971 14.5933 27.9971C17.2853 27.9971 20.0045 27.2217 22.389 25.6038C25.193 23.7024 27.1814 20.8609 27.9887 17.6029C28.0374 17.4073 27.9417 17.2042 27.7602 17.1168ZM21.9104 24.8988C15.9994 28.9088 7.89701 27.4057 3.8508 21.5442C1.89658 18.7136 1.16831 15.297 1.80045 11.9246C2.43547 8.53583 4.36557 5.59783 7.23535 3.65107C8.33482 2.90533 9.54458 2.33273 10.7997 1.9582C6.79758 5.82339 6.05184 12.1539 9.29947 16.8588C12.9532 22.151 20.2692 23.5106 25.6063 19.8901C25.9583 19.6512 26.2879 19.4002 26.5942 19.1381C25.6478 21.4577 24.027 23.4635 21.9104 24.8988Z" fill="#AD00FF"/>
</svg>
