<svg width="20" height="15" viewBox="0 0 20 15" fill="none" xmlns="http://www.w3.org/2000/svg">
<path fill-rule="evenodd" clip-rule="evenodd" d="M10.1482 9.53348e-05C14.5634 0.0625084 18.1857 4.01825 20 7.42184C20 7.42184 19.3616 8.72377 18.7628 9.5572C18.473 9.96038 18.1682 10.3532 17.8479 10.7331C17.6195 11.0035 17.3836 11.2669 17.1389 11.5228C14.9522 13.8113 11.8118 15.5185 8.49555 14.8556C4.81147 14.1192 1.80634 10.9736 0 7.59035C0 7.59035 0.641363 6.28717 1.24348 5.45499C1.51322 5.08176 1.79632 4.71852 2.09278 4.3661C2.31993 4.09606 2.55543 3.83267 2.79886 3.57678C4.73089 1.54794 7.20991 -0.0140516 10.1482 9.53348e-05ZM10.1328 1.66444C7.67339 1.65529 5.62821 3.0238 4.01019 4.72268C3.79014 4.95361 3.57802 5.19161 3.37258 5.43544C3.10243 5.75666 2.84438 6.08828 2.59844 6.42822C2.3525 6.76775 2.1003 7.19632 1.90029 7.56039C3.49284 10.2271 5.88334 12.6358 8.82417 13.2238C11.5646 13.7717 14.1221 12.2663 15.9293 10.3752C16.1502 10.1443 16.3635 9.90588 16.5698 9.66163C16.8621 9.31503 17.1402 8.95678 17.4045 8.58855C17.6492 8.24777 17.901 7.81837 18.1005 7.45388C16.4479 4.6973 13.6202 1.71853 10.1328 1.66444Z" fill="black"/>
<path fill-rule="evenodd" clip-rule="evenodd" d="M9.99987 4.17017C11.8476 4.17017 13.3478 5.66517 13.3478 7.50593C13.3478 9.34712 11.8476 10.8417 9.99987 10.8417C8.15262 10.8417 6.65234 9.34712 6.65234 7.50593C6.65234 5.66517 8.15262 4.17017 9.99987 4.17017ZM9.99987 5.83826C10.9239 5.83826 11.6738 6.58555 11.6738 7.50593C11.6738 8.42673 10.9239 9.17403 9.99987 9.17403C9.07624 9.17403 8.32632 8.42673 8.32632 7.50593C8.32632 6.58555 9.07624 5.83826 9.99987 5.83826Z" fill="black"/>
</svg>
