<svg width="40" height="32" viewBox="0 0 40 32" fill="none" xmlns="http://www.w3.org/2000/svg">
<path d="M38.7087 0.120972H1.29131C0.578163 0.120972 0 0.698963 0 1.41228V30.5875C0 31.3008 0.578163 31.8788 1.29131 31.8788H38.7087C39.4218 31.8788 40 31.3008 40 30.5875V1.41228C40 0.699135 39.4218 0.120972 38.7087 0.120972ZM37.4174 2.70377V27.3404L27.0877 16.3559C26.8438 16.0964 26.5034 15.9492 26.1473 15.9492C26.1472 15.9492 26.1472 15.9492 26.1472 15.9492C25.7911 15.9492 25.4509 16.0964 25.2067 16.3555L20.7956 21.0433L14.8816 13.2453C14.6374 12.9234 14.2568 12.7343 13.8527 12.7343C13.8523 12.7343 13.852 12.7343 13.8516 12.7343C13.4472 12.7347 13.0663 12.9244 12.8225 13.2471L2.58262 26.7953V2.70377H37.4174ZM35.7116 29.2963H3.92972L13.8544 16.1647L19.6605 23.8205C19.8902 24.1233 20.2414 24.3095 20.6209 24.3296C20.9998 24.3486 21.3695 24.2019 21.6298 23.925L26.1466 19.1249L35.7116 29.2963Z" fill="black"/>
</svg>
