<svg width="29" height="29" viewBox="0 0 29 29" fill="none" xmlns="http://www.w3.org/2000/svg">
<path d="M14.5 10.125C14.0674 10.125 13.6444 9.99671 13.2847 9.75634C12.925 9.51598 12.6446 9.17433 12.479 8.77462C12.3134 8.37491 12.2701 7.93507 12.3545 7.51074C12.4389 7.08641 12.6473 6.69663 12.9532 6.39071C13.2591 6.08478 13.6489 5.87644 14.0732 5.79203C14.4976 5.70763 14.9374 5.75095 15.3371 5.91651C15.7368 6.08208 16.0785 6.36246 16.3188 6.72219C16.5592 7.08192 16.6875 7.50485 16.6875 7.9375C16.6875 8.51766 16.457 9.07406 16.0468 9.4843C15.6366 9.89453 15.0802 10.125 14.5 10.125Z" fill="#FE7B7B"/>
<path d="M14.5 28.7188C11.6878 28.7188 8.93875 27.8848 6.60049 26.3225C4.26223 24.7601 2.43978 22.5394 1.36359 19.9413C0.287411 17.3431 0.00583208 14.4842 0.554466 11.7261C1.1031 8.9679 2.4573 6.43436 4.44583 4.44583C6.43436 2.4573 8.9679 1.1031 11.7261 0.554466C14.4842 0.00583208 17.3431 0.287411 19.9413 1.36359C22.5394 2.43978 24.7601 4.26223 26.3225 6.60049C27.8848 8.93875 28.7188 11.6878 28.7188 14.5C28.7188 18.2711 27.2207 21.8876 24.5542 24.5542C21.8876 27.2207 18.2711 28.7188 14.5 28.7188ZM14.5 2.46876C12.1205 2.46876 9.79433 3.17438 7.8158 4.49639C5.83727 5.8184 4.2952 7.69742 3.38458 9.89585C2.47396 12.0943 2.2357 14.5134 2.69993 16.8472C3.16416 19.181 4.31003 21.3248 5.99263 23.0074C7.67523 24.69 9.81899 25.8358 12.1528 26.3001C14.4867 26.7643 16.9057 26.526 19.1042 25.6154C21.3026 24.7048 23.1816 23.1627 24.5036 21.1842C25.8256 19.2057 26.5313 16.8796 26.5313 14.5C26.5313 11.3091 25.2637 8.24892 23.0074 5.99263C20.7511 3.73633 17.6909 2.46876 14.5 2.46876Z" fill="#FE7B7B"/>
<path d="M14.5 23.25C13.9198 23.25 13.3634 23.0195 12.9532 22.6093C12.543 22.1991 12.3125 21.6427 12.3125 21.0625V14.5C12.3125 13.9198 12.543 13.3634 12.9532 12.9532C13.3634 12.543 13.9198 12.3125 14.5 12.3125C15.0802 12.3125 15.6366 12.543 16.0468 12.9532C16.457 13.3634 16.6875 13.9198 16.6875 14.5V21.0625C16.6875 21.6427 16.457 22.1991 16.0468 22.6093C15.6366 23.0195 15.0802 23.25 14.5 23.25Z" fill="#FE7B7B"/>
</svg>
