<svg width="28" height="28" viewBox="0 0 28 28" fill="none" xmlns="http://www.w3.org/2000/svg">
<path d="M3.40909 13.5114H0.852273C0.381818 13.5114 0 13.8932 0 14.3637C0 14.8341 0.381818 15.2159 0.852273 15.2159H3.40909C3.87955 15.2159 4.26136 14.8341 4.26136 14.3637C4.26136 13.8932 3.87955 13.5114 3.40909 13.5114ZM13.6364 4.98866C14.1068 4.98866 14.4886 4.60684 14.4886 4.13639V1.57957C14.4886 1.10911 14.1068 0.727295 13.6364 0.727295C13.1659 0.727295 12.7841 1.10911 12.7841 1.57957V4.13639C12.7841 4.60684 13.1659 4.98866 13.6364 4.98866ZM21.8361 7.35795L23.6267 5.56731C23.9566 5.2375 23.9566 4.7031 23.6267 4.37328C23.2969 4.04347 22.7625 4.04347 22.4327 4.37328L20.642 6.16393C20.3122 6.49374 20.3122 7.02814 20.642 7.35795C20.9719 7.68781 21.5063 7.68781 21.8361 7.35795ZM6.31533 20.4915L4.52469 22.2822C4.19488 22.612 4.19488 23.1464 4.52469 23.4762C4.8545 23.806 5.3889 23.806 5.71872 23.4762L7.50936 21.6855C7.83917 21.3557 7.83917 20.8213 7.50936 20.4915C7.17955 20.1617 6.64519 20.1617 6.31533 20.4915ZM5.80227 7.73469C6.13552 8.06794 6.675 8.06794 7.00735 7.73469C7.33975 7.40145 7.33975 6.86197 7.00735 6.52961L5.19973 4.72106C4.86649 4.38781 4.32701 4.38781 3.99461 4.72106C3.66136 5.0543 3.66136 5.59378 3.99461 5.92618L5.80227 7.73469ZM13.6364 23.7387C13.1659 23.7387 12.7841 24.1205 12.7841 24.5909V27.1478C12.7841 27.6182 13.1659 28 13.6364 28C14.1068 28 14.4886 27.6182 14.4886 27.1478V24.5909C14.4886 24.1205 14.1068 23.7387 13.6364 23.7387ZM21.4705 20.9926C21.1372 20.6594 20.5977 20.6594 20.2653 20.9926C19.9321 21.3259 19.9321 21.8654 20.2653 22.1978L22.073 24.0054C22.4062 24.3387 22.9457 24.3387 23.2781 24.0054C23.6105 23.6721 23.6114 23.1327 23.2781 22.8003L21.4705 20.9926ZM26.4205 13.5114H23.8636C23.3932 13.5114 23.0114 13.8932 23.0114 14.3637C23.0114 14.8341 23.3932 15.2159 23.8636 15.2159H26.4205C26.8909 15.2159 27.2727 14.8341 27.2727 14.3637C27.2727 13.8932 26.8909 13.5114 26.4205 13.5114ZM13.6364 6.68808C9.39715 6.68808 5.96078 10.1244 5.96078 14.3637C5.96078 18.6029 9.39715 22.0392 13.6364 22.0392C17.8756 22.0392 21.3119 18.6029 21.3119 14.3637C21.3119 10.1244 17.8756 6.68808 13.6364 6.68808ZM13.6364 20.3279C10.3423 20.3279 7.67215 17.6577 7.67215 14.3637C7.67215 11.0696 10.3423 8.39944 13.6364 8.39944C16.9304 8.39944 19.6006 11.0696 19.6006 14.3637C19.6006 17.6577 16.9304 20.3279 13.6364 20.3279Z" fill="#FFBA35"/>
</svg>
