<svg width="20" height="20" viewBox="0 0 20 20" fill="none" xmlns="http://www.w3.org/2000/svg">
<path d="M16.0308 5.98525H15.0649C15.5321 4.80795 15.9864 3.07821 15.375 1.72166C15.0146 0.921728 14.3292 0.35283 13.3929 0.0769104C13.2201 0.0257366 13.0403 0 12.8593 0C11.6409 0 10.5384 1.08123 8.9273 3.85689C8.20338 5.10512 7.16146 6.15613 6.42767 6.72293C6.11624 6.96353 5.86737 7.20893 5.66556 7.45043C5.10921 6.69869 4.16506 6.20341 3.09581 6.20341C1.3889 6.20341 0 7.466 0 9.01767V17.1857C0 18.7377 1.3889 20 3.09581 20C4.21708 20 5.1981 19.4532 5.74128 18.6396C6.46948 19.4559 7.5802 19.9794 8.82393 19.9794H16.4031C19.5329 19.9794 20 18.1431 20 17.0487V9.59405C20.0003 7.60426 18.2197 5.98525 16.0308 5.98525ZM4.21642 17.1857C4.21642 17.7475 3.71373 18.2044 3.09614 18.2044C2.47823 18.2044 1.97554 17.7475 1.97554 17.1857V9.01767C1.97554 8.45596 2.47823 7.99898 3.09614 7.99898C3.71373 7.99898 4.21642 8.45596 4.21642 9.01767V17.1857ZM18.0251 17.0487C18.0251 17.7133 17.9086 18.1838 16.4035 18.1838H8.82426C7.72472 18.1838 6.82995 17.3707 6.82995 16.3711V9.59405L6.83259 9.56562L6.82567 9.51295C6.8237 9.48422 6.79078 8.79891 7.70662 8.09145C8.58098 7.41572 9.81976 6.16869 10.6744 4.69453C12.0346 2.3513 12.6838 1.89553 12.8599 1.80934C13.202 1.92545 13.4156 2.1107 13.547 2.40218C13.9726 3.34665 13.438 5.16257 12.6901 6.46826L11.9385 7.78052H16.0305C17.1303 7.78052 18.0251 8.59392 18.0251 9.59375V17.0487Z" fill="#FFBA35"/>
</svg>
