<svg xmlns="http://www.w3.org/2000/svg" viewBox="0 0 20 20"><defs><style>.cls-1{fill:#ffba35;}</style></defs><g id="Слой_2" data-name="Слой 2"><g id="Слой_1-2" data-name="Слой 1"><path class="cls-1" d="M16,6h-1a5.81,5.81,0,0,0,.32-4.27,3,3,0,0,0-2-1.64A1.89,1.89,0,0,0,12.86,0c-1.22,0-2.32,1.08-3.93,3.86a10.57,10.57,0,0,1-2.5,2.86,4.86,4.86,0,0,0-.76.73A3.2,3.2,0,0,0,3.1,6.2,3,3,0,0,0,0,9v8.17A3,3,0,0,0,3.1,20a3.16,3.16,0,0,0,2.64-1.36A4.11,4.11,0,0,0,8.82,20H16.4c3.13,0,3.6-1.84,3.6-2.93V9.59A3.8,3.8,0,0,0,16,6ZM13.62,4h0ZM10,5.74h0l0,0Z"/></g></g></svg>