<svg width="50" height="50" viewBox="0 0 50 50" fill="none" xmlns="http://www.w3.org/2000/svg">
<path fill-rule="evenodd" clip-rule="evenodd" d="M42.5 0C46.4873 0 49.7587 3.12894 49.9872 7.06003L50 7.5V32.5C50 36.4873 46.8711 39.7587 42.94 39.9872L42.5 40H33.75L27 49C26.5275 49.63 25.7875 50 25 50C24.3109 50 23.6582 49.7167 23.1893 49.2238L23 49L16.25 40H7.5C3.51268 40 0.241339 36.8711 0.0127578 32.94L0 32.5V7.5C0 3.51268 3.12894 0.241339 7.06003 0.0127578L7.5 0H42.5ZM42.5 5H7.5C6.22089 5 5.16166 5.96787 5.01686 7.20904L5 7.5V32.5C5 33.7791 5.96787 34.8383 7.20904 34.9831L7.5 35H17.5C18.1891 35 18.8418 35.2833 19.3107 35.7762L19.5 36L25 43.3325L30.5 36C30.9134 35.4487 31.5317 35.0966 32.2073 35.0171L32.5 35H42.5C43.7791 35 44.8383 34.0321 44.9831 32.791L45 32.5V7.5C45 6.22089 44.0321 5.16166 42.791 5.01686L42.5 5ZM37.5 22.5C38.88 22.5 40 23.62 40 25C40 26.2814 39.0343 27.3387 37.7914 27.4832L37.5 27.5H12.5C11.12 27.5 10 26.38 10 25C10 23.7186 10.9657 22.6613 12.2086 22.5168L12.5 22.5H37.5ZM37.5 12.5C38.88 12.5 40 13.62 40 15C40 16.2814 39.0343 17.3387 37.7914 17.4832L37.5 17.5H12.5C11.12 17.5 10 16.38 10 15C10 13.7186 10.9657 12.6613 12.2086 12.5168L12.5 12.5H37.5Z" fill="#FFBA35"/>
</svg>
