<svg width="39" height="28" viewBox="0 0 39 28" fill="none" xmlns="http://www.w3.org/2000/svg">
<path d="M33.5625 27.5714H5.43751C2.65228 27.5714 0.376221 25.7305 0.222563 23.411L0.214294 23.1607V3.48216C0.214294 1.86599 1.70116 0.543071 3.58279 0.435634L3.83037 0.428589H28.7411C30.655 0.428589 32.2216 1.68417 32.3488 3.27309L32.3572 3.48216V4.50002H35.1697C37.0835 4.50002 38.6502 5.75559 38.7774 7.34452L38.7857 7.55359V23.1607C38.7857 25.5127 36.6057 27.4347 33.8589 27.5645L33.5625 27.5714H5.43751H33.5625ZM5.43751 25.5357H33.5625C35.0381 25.5357 36.2484 24.5761 36.3657 23.3555L36.375 23.1607V7.55359C36.375 7.03829 35.9215 6.61242 35.3332 6.54502L35.1697 6.53573H32.3572V21.125C32.3572 21.6403 31.9037 22.0662 31.3154 22.1336L31.1518 22.1429C30.5416 22.1429 30.0373 21.76 29.9574 21.2631L29.9464 21.125V3.48216C29.9464 2.96686 29.493 2.54099 28.9046 2.47359L28.7411 2.4643H3.83037C3.22014 2.4643 2.71583 2.84723 2.63601 3.34404L2.62501 3.48216V23.1607C2.62501 24.4068 3.76144 25.4288 5.20684 25.5279L5.43751 25.5357H33.5625H5.43751ZM13.4676 12.6476C14.5771 12.6476 15.4766 13.4071 15.4766 14.344V19.0893C15.4766 20.0262 14.5771 20.7857 13.4676 20.7857H7.84822C6.73872 20.7857 5.83929 20.0262 5.83929 19.0893V14.344C5.83929 13.4071 6.73872 12.6476 7.84822 12.6476H13.4676ZM19.9018 18.75H25.5207C26.1864 18.75 26.726 19.2057 26.726 19.7679C26.726 20.2832 26.2726 20.709 25.6842 20.7764L25.5207 20.7857H19.9018C19.2361 20.7857 18.6964 20.33 18.6964 19.7679C18.6964 19.2526 19.1499 18.8267 19.7382 18.7593L19.9018 18.75H25.5207H19.9018ZM13.0659 14.6833H8.25001V18.75H13.0659V14.6833ZM19.9018 12.6476H25.5207C26.1864 12.6476 26.726 13.1033 26.726 13.6654C26.726 14.1807 26.2726 14.6066 25.6842 14.674L25.5207 14.6833H19.9018C19.2361 14.6833 18.6964 14.2276 18.6964 13.6654C18.6964 13.1501 19.1499 12.7243 19.7382 12.6569L19.9018 12.6476H25.5207H19.9018ZM7.03886 6.5312H25.5207C26.1864 6.5312 26.726 6.98691 26.726 7.54905C26.726 8.06435 26.2726 8.49022 25.6842 8.55762L25.5207 8.56691H7.03886C6.37316 8.56691 5.8335 8.1112 5.8335 7.54905C5.8335 7.03375 6.28696 6.60789 6.8753 6.54049L7.03886 6.5312H25.5207H7.03886Z" fill="#212121"/>
</svg>
