<svg width="50" height="50" viewBox="0 0 50 50" fill="none" xmlns="http://www.w3.org/2000/svg">
<path d="M39.2072 49.9998C38.7928 49.9998 38.3776 49.866 38.0237 49.5975L25.0007 39.6888L11.9778 49.5969C11.272 50.1344 10.3167 50.1344 9.61022 49.5969C8.90439 49.06 8.60973 48.109 8.8789 47.2396L13.853 31.2081L0.829997 21.3013C0.124165 20.7638 -0.170488 19.8127 0.098683 18.9441C0.367854 18.0755 1.14085 17.4878 2.01356 17.4878H18.1112L23.0853 1.45626C23.3545 0.587659 24.1283 0 25.0002 0C25.8722 0 26.6459 0.587529 26.9151 1.45626L31.8892 17.4878H47.9869C48.8595 17.4878 49.6326 18.0753 49.9018 18.9441C50.1709 19.8128 49.8762 20.7638 49.1704 21.3013L36.1488 31.2087L41.1229 47.2403C41.3921 48.1089 41.0973 49.06 40.3916 49.5975C40.0388 49.8659 39.6229 49.9998 39.2072 49.9998ZM25.0007 34.9756C25.4158 34.9756 25.8316 35.1094 26.1842 35.3779L35.3788 42.3722L31.8661 31.0551C31.5969 30.1865 31.8917 29.2354 32.5974 28.6979L41.792 21.7036H30.4268C29.5555 21.7036 28.7825 21.1161 28.5119 20.2473L25.0006 8.92886L21.4892 20.2473C21.2187 21.1159 20.4451 21.7036 19.5744 21.7036H8.20932L17.4039 28.6979C18.1098 29.2354 18.4044 30.1865 18.1352 31.0551L14.6232 42.3722L23.8178 35.3779C24.1698 35.1095 24.5863 34.9756 25.0007 34.9756Z" fill="#FFBA35"/>
</svg>
