<svg width="50" height="50" viewBox="0 0 50 50" fill="none" xmlns="http://www.w3.org/2000/svg">
<g clip-path="url(#clip0_35_86)">
<path d="M24.9948 26.7037C32.33 26.7037 38.4002 20.858 38.4002 13.4105C38.4002 5.96306 32.33 0.00509644 24.9948 0.00509644C17.6595 0.00509644 11.5894 5.85084 11.5894 13.2983C11.5894 20.7458 17.6595 26.7037 24.9948 26.7037ZM24.9948 4.15731C30.0958 4.15731 34.248 8.30952 34.248 13.3085C34.248 18.3075 30.0958 22.4495 24.9948 22.4495C19.8938 22.4495 15.7416 18.2973 15.7416 13.2983C15.7416 8.29932 19.8938 4.15731 24.9948 4.15731Z" fill="#FFBA35"/>
<path d="M34.0339 27.979C33.1871 27.7647 32.3301 27.979 31.7996 28.6217L24.9949 36.3854L18.1902 28.6217C17.6597 27.979 16.7007 27.7749 15.9559 27.979C6.27423 31.1722 0 39.0379 0 47.8627C0 49.0359 0.958988 49.9949 2.13222 49.9949H47.8678C49.041 49.9949 50 49.0359 50 47.8627C49.9898 39.0379 43.7156 31.1722 34.0339 27.979ZM4.35625 45.8427C5.21322 39.9969 9.46745 34.9979 16.0579 32.4474L23.5054 40.9559C24.2502 41.9149 25.8417 41.9149 26.5864 40.9559L34.0339 32.4474C40.5223 34.9979 44.8888 40.0989 45.7356 45.8427H4.35625Z" fill="#FFBA35"/>
</g>
<defs>
<clipPath id="clip0_35_86">
<rect width="50" height="50" fill="white"/>
</clipPath>
</defs>
</svg>
