<?xml version="1.0" standalone="no"?>
<!DOCTYPE svg PUBLIC "-//W3C//DTD SVG 20010904//EN"
 "http://www.w3.org/TR/2001/REC-SVG-20010904/DTD/svg10.dtd">
<svg version="1.0" xmlns="http://www.w3.org/2000/svg"
 width="397.000000pt" height="397.000000pt" viewBox="0 0 397.000000 397.000000"
 preserveAspectRatio="xMidYMid meet">
<metadata>
Created by potrace 1.14, written by Peter Selinger 2001-2017
</metadata>
<g transform="translate(0.000000,397.000000) scale(0.100000,-0.100000)"
fill="#000000" stroke="none">
<path d="M1772 3959 c-171 -21 -350 -62 -439 -100 -24 -10 -43 -16 -43 -14 0
5 -99 -38 -195 -87 -425 -213 -769 -586 -946 -1025 -245 -608 -174 -1300 190
-1839 44 -65 95 -137 113 -159 50 -61 216 -226 278 -277 271 -221 611 -372
955 -424 171 -26 479 -25 605 1 14 3 41 8 60 11 229 37 515 155 732 301 351
235 606 557 753 948 70 186 99 316 121 535 6 61 6 287 0 330 -3 19 -8 58 -11
85 -4 28 -8 64 -10 81 -12 90 -65 277 -112 393 -151 378 -411 697 -753 926
-215 143 -526 264 -775 300 -23 3 -52 8 -65 11 -41 9 -391 11 -458 3z"/>
</g>
</svg>
